<svg xmlns="http://www.w3.org/2000/svg" version="1.1" xmlns:xlink="http://www.w3.org/1999/xlink" xmlns:svgjs="http://svgjs.dev/svgjs" width="128" height="128" viewBox="0 0 128 128"><g transform="matrix(0.49282296650717705,0,0,0.49282296650717705,32.611789582192635,12.506335372881338)"><svg viewBox="0 0 36 59" data-background-color="#fafafa" preserveAspectRatio="xMidYMid meet" height="209" width="128" xmlns="http://www.w3.org/2000/svg" xmlns:xlink="http://www.w3.org/1999/xlink"><g id="tight-bounds" transform="matrix(1,0,0,1,-0.08700734347826256,-0.0036289999999894462)"><svg viewBox="0 0 36.17401468695652 59.00725799999999" height="59.00725799999999" width="36.17401468695652"><g><svg viewBox="0 0 36.17401468695652 59.00725799999999" height="59.00725799999999" width="36.17401468695652"><g><svg viewBox="0 0 36.17401468695652 59.00725799999999" height="59.00725799999999" width="36.17401468695652"><g><svg viewBox="0 0 36.17401468695652 59.00725799999999" height="59.00725799999999" width="36.17401468695652"><g id="textblocktransform"><svg viewBox="0 0 36.17401468695652 59.00725799999999" height="59.00725799999999" width="36.17401468695652" id="textblock"><g><svg viewBox="0 0 36.17401468695652 59.00725799999999" height="59.00725799999999" width="36.17401468695652"><g><svg viewBox="0 0 36.17401468695652 59.00725799999999" height="59.00725799999999" width="36.17401468695652"><g><svg xmlns="http://www.w3.org/2000/svg" xmlns:xlink="http://www.w3.org/1999/xlink" version="1.1" x="0" y="0" viewBox="9.899999999999999 1 28.199999999999996 45.99999999999999" enable-background="new 0 0 48 48" xml:space="preserve" height="59.00725799999999" width="36.17401468695652" class="icon-icon-0" data-fill-palette-color="accent" id="icon-0"><g fill="#e77917" data-fill-palette-color="accent"><path fill="#e77917" d="M35.3 1H12.7c-1.6 0-2.8 1.3-2.8 2.8v40.4c0 1.6 1.3 2.8 2.8 2.8h22.6c1.6 0 2.8-1.3 2.8-2.8V3.8C38.1 2.3 36.8 1 35.3 1zM20.1 3.1h7.8c0.4 0 0.7 0.3 0.7 0.7 0 0.4-0.3 0.7-0.7 0.7h-7.8c-0.4 0-0.7-0.3-0.7-0.7C19.4 3.4 19.7 3.1 20.1 3.1zM24 45.4c-1.3 0-2.3-1-2.3-2.3s1-2.3 2.3-2.3 2.3 1 2.3 2.3S25.3 45.4 24 45.4zM34.2 38.5H13.8V7h20.3V38.5z" data-fill-palette-color="accent"></path></g></svg></g></svg></g></svg></g></svg></g></svg></g></svg></g></svg></g><defs></defs></svg><rect width="36.17401468695652" height="59.00725799999999" fill="none" stroke="none" visibility="hidden"></rect></g></svg></g></svg>